<svg width="183" height="180" viewBox="0 0 183 180" fill="none" xmlns="http://www.w3.org/2000/svg">
<path fill-rule="evenodd" clip-rule="evenodd" d="M91.5 180C142.034 180 183 139.706 183 90C183 40.2944 142.034 0 91.5 0C40.9659 0 0 40.2944 0 90C0 139.706 40.9659 180 91.5 180ZM35.663 130.217H49.3057V148.936C48.4596 149.888 45.1177 151.791 38.5185 151.791C15.1812 151.791 15.246 112.146 38.2012 112.767C41.6912 112.767 47.7193 114.353 49.9402 116.574L47.7193 120.381C46.0272 119.43 41.8252 117.976 38.5185 117.843C22.6549 117.209 22.4326 146.715 38.5185 146.715C40.549 146.715 43.1718 146.08 44.2293 145.763V134.976H35.663V130.217ZM73.7356 113.719H68.6593V142.273C68.6593 149.888 74.5817 151.58 77.5429 151.474H81.9847V146.715H77.5429C74.2432 146.207 73.6298 143.542 73.7356 142.273V126.727H81.9847V122.602H73.7356V113.719ZM87.6955 113.719H92.7719V146.08H108.001V150.839H87.6955V113.719ZM131.796 150.839C131.796 150.839 132.431 130.64 131.796 128.313C131.162 125.987 128.941 121.968 122.913 121.651C116.885 121.333 113.395 122.92 110.856 125.458L113.077 128.63C118.431 125.748 127.862 124.82 127.037 133.072L126.671 133.072C120.17 133.069 110.222 133.064 110.222 141.956C110.222 150.522 117.836 151.474 119.423 151.474C123.547 151.474 127.037 149.57 127.037 147.984C127.291 147.73 127.566 147.878 127.672 147.984L127.989 150.839H131.796ZM127.037 137.831V143.542C125.134 146.715 115.298 148.301 115.615 141.639C115.857 136.558 124.816 136.562 127.037 137.831ZM56.6029 122.602H61.6793V150.839H56.6029V122.602ZM61.6793 118.478H56.6029V113.719H61.6793V118.478ZM138.459 149.57V113.719H142.901V124.506C147.025 121.016 151.467 121.23 153.688 122.285C166.379 128.313 161.303 148.301 152.736 150.522C146.668 152.095 140.786 150.734 138.459 149.57ZM142.901 128.948V145.763C147.343 147.244 156.099 147.349 155.592 135.928C154.957 121.651 144.17 127.996 142.901 128.948ZM77.4743 56.2854L68.7317 29.8346C67.7326 28.3231 66.8583 29.2048 66.5461 29.8346L57.8035 56.2854L53.6455 68.9763C53.3282 69.928 53.0109 72.0855 54.28 73.1008C54.28 73.1008 89.9397 99.5471 90.449 99.7516C90.9477 99.952 91.2318 100.02 91.7203 100.066L91.7181 100.069L91.7348 100.067L91.7516 100.069L91.7541 100.066C92.2397 100.02 92.5236 99.9513 93.0206 99.7516C93.5299 99.5471 128.872 73.1008 128.872 73.1008C130.141 72.0855 129.824 69.928 129.507 68.9763L125.065 56.2854L116.604 29.8346C116.302 29.2048 115.456 28.3231 114.489 29.8346L106.029 56.2854H105.743H91.7516H77.7916H77.4743Z" fill="#45577B"/>
</svg>
